<?xml version="1.0" standalone="no"?>
<!DOCTYPE svg PUBLIC "-//W3C//DTD SVG 20010904//EN"
 "http://www.w3.org/TR/2001/REC-SVG-20010904/DTD/svg10.dtd">
<svg version="1.0" xmlns="http://www.w3.org/2000/svg"
 width="1280.000000pt" height="1280.000000pt" viewBox="0 0 1280.000000 1280.000000"
 preserveAspectRatio="xMidYMid meet">

<g transform="translate(0.000000,1280.000000) scale(0.100000,-0.100000)"
fill="#000000" stroke="none">
<path d="M6160 12794 c-1236 -53 -2265 -374 -3230 -1009 -730 -481 -1430
-1180 -1915 -1915 -589 -891 -913 -1862 -996 -2990 -16 -211 -16 -756 0 -970
92 -1251 481 -2313 1205 -3285 390 -524 892 -1025 1416 -1415 965 -718 2066
-1119 3295 -1200 196 -13 742 -13 937 0 1318 88 2464 530 3484 1346 373 298
788 713 1089 1089 813 1016 1256 2163 1345 3483 13 198 13 736 0 934 -76 1130
-408 2124 -1010 3028 -588 881 -1433 1662 -2335 2157 -765 420 -1625 668
-2540 733 -154 11 -612 19 -745 14z m1810 -4163 l1555 -1207 3 -2237 2 -2237
-1075 0 -1075 0 0 1350 0 1350 -975 0 -975 0 0 -1350 0 -1350 -1075 0 -1075 0
1 2238 0 2237 402 310 c404 312 1913 1483 2432 1887 154 120 285 217 290 217
6 0 710 -544 1565 -1208z"/>
</g>
</svg>
