<svg width="24" height="24" viewBox="0 0 24 24" fill="none" xmlns="http://www.w3.org/2000/svg">
<path fill-rule="evenodd" clip-rule="evenodd" d="M5 4.25C4.58579 4.25 4.25 4.58579 4.25 5V10C4.25 10.4142 4.58579 10.75 5 10.75H10C10.4142 10.75 10.75 10.4142 10.75 10V5C10.75 4.58579 10.4142 4.25 10 4.25H5ZM5.75 9.25V5.75H9.25V9.25H5.75ZM5 13.25C4.58579 13.25 4.25 13.5858 4.25 14V19C4.25 19.4142 4.58579 19.75 5 19.75H10C10.4142 19.75 10.75 19.4142 10.75 19V14C10.75 13.5858 10.4142 13.25 10 13.25H5ZM5.75 18.25V14.75H9.25V18.25H5.75ZM13.25 5C13.25 4.58579 13.5858 4.25 14 4.25H19C19.4142 4.25 19.75 4.58579 19.75 5V10C19.75 10.4142 19.4142 10.75 19 10.75H14C13.5858 10.75 13.25 10.4142 13.25 10V5ZM14.75 5.75V9.25H18.25V5.75H14.75ZM14 13.25C13.5858 13.25 13.25 13.5858 13.25 14V19C13.25 19.4142 13.5858 19.75 14 19.75H19C19.4142 19.75 19.75 19.4142 19.75 19V14C19.75 13.5858 19.4142 13.25 19 13.25H14ZM14.75 18.25V14.75H18.25V18.25H14.75Z"/>
</svg>
