<svg width="24" height="24" viewBox="0 0 24 24" fill="none" xmlns="http://www.w3.org/2000/svg">
<path fill-rule="evenodd" clip-rule="evenodd" d="M12.0801 4C12.4943 4 12.8301 4.33579 12.8301 4.75V5.3572C13.5187 5.76939 14.3292 6.17118 15.1383 6.48328C16.1 6.85426 16.9952 7.07325 17.6567 7.07325H19.25C19.6642 7.07325 20 7.40904 20 7.82325C20 8.23746 19.6642 8.57325 19.25 8.57325H17.6567C17.6237 8.57325 17.5905 8.57288 17.5571 8.57216C17.5587 8.57618 17.5603 8.58023 17.5618 8.5843L19.9522 14.9582C20.0691 15.27 19.9664 15.6217 19.6999 15.8215C18.8805 16.436 17.8841 16.7682 16.8599 16.7682C15.8358 16.7682 14.8394 16.436 14.02 15.8215C13.7535 15.6217 13.6508 15.2701 13.7677 14.9582L16.1573 8.58437C16.1826 8.51687 16.2169 8.45463 16.2586 8.3988C15.7095 8.27487 15.1446 8.09346 14.5985 7.88277C13.9955 7.65018 13.3932 7.37321 12.8301 7.07665V18.3409H15.665C16.0793 18.3409 16.415 18.6767 16.415 19.0909C16.415 19.5052 16.0793 19.8409 15.665 19.8409H12.089L12.0801 19.841L12.0711 19.8409H8.49511C8.0809 19.8409 7.74511 19.5052 7.74511 19.0909C7.74511 18.6767 8.0809 18.3409 8.49511 18.3409H11.3301V7.07665C10.767 7.37321 10.1647 7.65018 9.5617 7.88277C9.01527 8.09355 8.45012 8.27503 7.90076 8.39897C7.9424 8.45473 7.97669 8.5169 8.00197 8.5843L10.3923 14.9582C10.5093 15.27 10.4066 15.6217 10.1401 15.8215C9.32071 16.436 8.32424 16.7682 7.30013 16.7682C6.27602 16.7682 5.27954 16.436 4.46018 15.8215C4.19372 15.6217 4.09096 15.2701 4.20788 14.9582L6.59746 8.58437C6.59899 8.58029 6.60056 8.57622 6.60215 8.57218C6.56906 8.57289 6.53617 8.57325 6.50347 8.57325H4.91015C4.49594 8.57325 4.16015 8.23746 4.16015 7.82325C4.16015 7.40904 4.49594 7.07325 4.91015 7.07325H6.50347C7.16494 7.07325 8.06014 6.85426 9.02185 6.48328C9.83094 6.17118 10.6414 5.76938 11.3301 5.35719V4.75C11.3301 4.33579 11.6659 4 12.0801 4ZM16.8597 10.9838L15.3866 14.913C15.8404 15.1452 16.3451 15.2682 16.8599 15.2682C17.3748 15.2682 17.8795 15.1453 18.3332 14.913L16.8597 10.9838ZM7.29985 10.9838L5.8268 14.913C6.28056 15.1452 6.78524 15.2682 7.30013 15.2682C7.81499 15.2682 8.31965 15.1453 8.77339 14.913L7.29985 10.9838Z" />
</svg>
