<svg width="24" height="24" viewBox="0 0 24 24" fill="none" xmlns="http://www.w3.org/2000/svg">
<path fill-rule="evenodd" clip-rule="evenodd" d="M5.70273 5.70273C5.83097 5.57449 6.0049 5.50244 6.18626 5.50244H12.6385C12.8198 5.50244 12.9938 5.57449 13.122 5.70273C13.2502 5.83097 13.3223 6.0049 13.3223 6.18626V6.90317C13.3223 7.31738 13.6581 7.65317 14.0723 7.65317C14.4865 7.65317 14.8223 7.31738 14.8223 6.90317V6.18626C14.8223 5.60707 14.5922 5.05161 14.1827 4.64207C13.7731 4.23252 13.2177 4.00244 12.6385 4.00244H6.18626C5.60708 4.00244 5.05162 4.23252 4.64207 4.64207C4.23252 5.05161 4.00244 5.60707 4.00244 6.18626V12.6384C4.00244 13.2176 4.23252 13.7731 4.64207 14.1826C5.05162 14.5922 5.60708 14.8223 6.18626 14.8223H6.90318C7.31739 14.8223 7.65318 14.4865 7.65318 14.0723C7.65318 13.658 7.31739 13.3223 6.90318 13.3223H6.18626C6.0049 13.3223 5.83097 13.2502 5.70273 13.122C5.57449 12.9937 5.50244 12.8198 5.50244 12.6384V6.18626C5.50244 6.0049 5.57449 5.83097 5.70273 5.70273ZM10.6801 11.364C10.6801 10.9863 10.9862 10.6801 11.3639 10.6801H17.8161C18.1937 10.6801 18.4999 10.9863 18.4999 11.364V17.8161C18.4999 18.1938 18.1937 18.5 17.8161 18.5H11.3639C10.9862 18.5 10.6801 18.1938 10.6801 17.8161V11.364ZM11.3639 9.18014C10.1578 9.18014 9.18005 10.1579 9.18005 11.364V17.8161C9.18005 19.0222 10.1578 20 11.3639 20H17.8161C19.0222 20 19.9999 19.0222 19.9999 17.8161V11.364C19.9999 10.1579 19.0222 9.18014 17.8161 9.18014H11.3639Z" />
</svg>
