<svg width="24" height="24" viewBox="0 0 24 24" fill="none" xmlns="http://www.w3.org/2000/svg">
<path fill-rule="evenodd" clip-rule="evenodd" d="M7.85861 2.40001C7.90468 2.40004 7.95179 2.40007 8 2.40007H13H13.0063V2.40011C13.2975 2.40316 13.5348 2.41375 13.7774 2.47125L13.7818 2.4723L13.7818 2.47232C14.0437 2.5365 14.2967 2.63987 14.5309 2.78373C14.7958 2.94635 15.017 3.16834 15.321 3.47341C15.3343 3.48676 15.3478 3.50028 15.3614 3.51395C15.3616 3.51411 15.3617 3.51427 15.3619 3.51442L18.4872 6.63874L18.4873 6.63881C18.5025 6.654 18.5174 6.66898 18.5322 6.68376C18.8349 6.98617 19.0546 7.20574 19.2163 7.46918L19.217 7.4702C19.3598 7.70394 19.4633 7.95545 19.5278 8.21824L19.5296 8.2259L19.5296 8.22591C19.585 8.46543 19.5969 8.70058 19.6 8.99376L19.6 9.00007H19.6V17.8041V17.8292C19.6 18.3668 19.6 18.8064 19.5707 19.1638C19.5404 19.5339 19.4758 19.868 19.3166 20.1804L19.3164 20.1809C19.0669 20.6694 18.6694 21.067 18.1798 21.3165C17.8675 21.4759 17.5331 21.5405 17.1631 21.5708C16.8056 21.6001 16.3658 21.6001 15.8281 21.6001H15.803H8.197C7.63974 21.6001 7.18238 21.5938 6.81262 21.5606C6.44674 21.5277 6.1096 21.4644 5.8196 21.3167C5.3304 21.0674 4.93267 20.6697 4.6834 20.1805L4.68336 20.1804C4.51423 19.8483 4.45622 19.4179 4.42858 19.0035C4.39999 18.575 4.4 18.0635 4.4 17.5163V17.5001V6.20007L4.4 6.17494C4.39999 5.63629 4.39999 5.19576 4.42924 4.83771C4.45953 4.46709 4.52412 4.13239 4.68336 3.81976L5.218 4.09207L4.68336 3.81976C4.93258 3.33045 5.33038 2.93265 5.81969 2.68343L6.092 3.21807L5.81969 2.68343C6.37794 2.39909 6.8854 2.39941 7.85861 2.40001ZM8 3.60007C6.82667 3.60007 6.63564 3.61452 6.36432 3.75272L6.36431 3.75272C6.10093 3.88687 5.8868 4.101 5.75265 4.36439L5.75264 4.36439C5.69388 4.47976 5.64947 4.63906 5.62526 4.93544C5.60047 5.23883 5.6 5.63017 5.6 6.20007V17.5001C5.6 18.0668 5.60029 18.5394 5.62592 18.9236C5.65278 19.3262 5.70377 19.5398 5.75264 19.6358C5.88687 19.8991 6.10101 20.1133 6.3644 20.2475C6.4507 20.2914 6.60707 20.3372 6.92011 20.3654C7.22927 20.3932 7.63626 20.4001 8.197 20.4001H15.803C16.3719 20.4001 16.7625 20.3996 17.0652 20.3748C17.3609 20.3506 17.5195 20.3063 17.6342 20.2477L17.6347 20.2474C17.8987 20.113 18.1129 19.8988 18.2474 19.6356C18.3063 19.5201 18.3506 19.3611 18.3748 19.0659C18.3995 18.7633 18.4 18.373 18.4 17.8041V9.60007H16.197H16.1719C15.6342 9.60008 15.1942 9.60009 14.8365 9.57083C14.4664 9.54056 14.1319 9.47599 13.8196 9.31667C13.3304 9.06741 12.9327 8.66967 12.6834 8.18047L12.6834 8.18039C12.5241 7.86776 12.4595 7.53306 12.4292 7.16244C12.4 6.80439 12.4 6.36386 12.4 5.82521V5.80007V3.60007H8ZM13.6 3.66727V5.80007C13.6 6.36997 13.6005 6.76131 13.6253 7.06471C13.6495 7.36109 13.6939 7.52039 13.7526 7.63576C13.8869 7.89913 14.101 8.11327 14.3644 8.24747L14.3648 8.24769C14.4795 8.30621 14.6382 8.3506 14.9343 8.37482C15.2373 8.39961 15.6281 8.40007 16.197 8.40007H18.3328C18.2982 8.29339 18.2516 8.19191 18.1932 8.09629C18.1149 7.96888 18.0041 7.8527 17.6388 7.48741C17.6388 7.48738 17.6388 7.48736 17.6387 7.48734L14.5128 4.36241L14.5121 4.36172C14.1475 3.99603 14.0305 3.8846 13.9031 3.80642L13.9029 3.80626C13.8089 3.74851 13.7074 3.702 13.6 3.66727ZM12 11.4001C12.3314 11.4001 12.6 11.6687 12.6 12.0001V16.879L14.6672 15.5008C14.9429 15.317 15.3154 15.3915 15.4992 15.6673C15.683 15.943 15.6085 16.3155 15.3328 16.4993L12.3328 18.4993C12.1313 18.6337 11.8687 18.6337 11.6672 18.4993L8.66718 16.4993C8.39146 16.3155 8.31696 15.943 8.50077 15.6673C8.68458 15.3915 9.0571 15.317 9.33282 15.5008L11.4 16.879V12.0001C11.4 11.6687 11.6686 11.4001 12 11.4001Z" />
</svg>
