<svg width="24" height="24" viewBox="0 0 24 24" fill="none" xmlns="http://www.w3.org/2000/svg">
<path fill-rule="evenodd" clip-rule="evenodd" d="M13.75 5.5C13.75 4.5335 14.5335 3.75 15.5 3.75C16.4665 3.75 17.25 4.5335 17.25 5.5C17.25 6.4665 16.4665 7.25 15.5 7.25C14.5335 7.25 13.75 6.4665 13.75 5.5ZM15.5 2.25C13.9632 2.25 12.6755 3.31665 12.337 4.75H2V6.25H12.337C12.6755 7.68335 13.9632 8.75 15.5 8.75C17.0368 8.75 18.3245 7.68335 18.663 6.25H22V4.75H18.663C18.3245 3.31665 17.0368 2.25 15.5 2.25ZM6.75 11.5C6.75 10.5335 7.5335 9.75 8.5 9.75C9.4665 9.75 10.25 10.5335 10.25 11.5C10.25 12.4665 9.4665 13.25 8.5 13.25C7.5335 13.25 6.75 12.4665 6.75 11.5ZM8.5 8.25C6.96321 8.25 5.67555 9.31665 5.33697 10.75H2V12.25H5.33697C5.67555 13.6834 6.96321 14.75 8.5 14.75C10.0368 14.75 11.3245 13.6834 11.663 12.25H22V10.75H11.663C11.3245 9.31665 10.0368 8.25 8.5 8.25ZM18.663 18.25H22V16.75H18.663C18.3245 15.3166 17.0368 14.25 15.5 14.25C13.9632 14.25 12.6755 15.3166 12.337 16.75H2V18.25H12.337C12.6755 19.6833 13.9632 20.75 15.5 20.75C17.0368 20.75 18.3245 19.6833 18.663 18.25ZM13.75 17.5C13.75 16.5335 14.5335 15.75 15.5 15.75C16.4665 15.75 17.25 16.5335 17.25 17.5C17.25 18.4665 16.4665 19.25 15.5 19.25C14.5335 19.25 13.75 18.4665 13.75 17.5Z" />
</svg>
