<svg width="24" height="24" viewBox="0 0 24 24" fill="none" xmlns="http://www.w3.org/2000/svg">
<path fill-rule="evenodd" clip-rule="evenodd" d="M6 5.75C5.86193 5.75 5.75 5.86193 5.75 6V9C5.75 9.41421 5.41421 9.75 5 9.75C4.58579 9.75 4.25 9.41421 4.25 9V6C4.25 5.0335 5.0335 4.25 6 4.25H9C9.41421 4.25 9.75 4.58579 9.75 5C9.75 5.41421 9.41421 5.75 9 5.75H6ZM14.25 5C14.25 4.58579 14.5858 4.25 15 4.25H18C18.9665 4.25 19.75 5.0335 19.75 6V9C19.75 9.41421 19.4142 9.75 19 9.75C18.5858 9.75 18.25 9.41421 18.25 9V6C18.25 5.86193 18.1381 5.75 18 5.75H15C14.5858 5.75 14.25 5.41421 14.25 5ZM5 14.25C5.41421 14.25 5.75 14.5858 5.75 15V18C5.75 18.1381 5.86193 18.25 6 18.25H9C9.41421 18.25 9.75 18.5858 9.75 19C9.75 19.4142 9.41421 19.75 9 19.75H6C5.0335 19.75 4.25 18.9665 4.25 18V15C4.25 14.5858 4.58579 14.25 5 14.25ZM19 14.25C19.4142 14.25 19.75 14.5858 19.75 15V18C19.75 18.9665 18.9665 19.75 18 19.75H15C14.5858 19.75 14.25 19.4142 14.25 19C14.25 18.5858 14.5858 18.25 15 18.25H18C18.1381 18.25 18.25 18.1381 18.25 18V15C18.25 14.5858 18.5858 14.25 19 14.25Z" />
</svg>
