<svg width="24" height="24" viewBox="0 0 24 24" fill="none" xmlns="http://www.w3.org/2000/svg">
<path fill-rule="evenodd" clip-rule="evenodd" d="M4.42431 12C4.42431 7.81611 7.8161 4.42432 12 4.42432C16.1839 4.42432 19.5757 7.81611 19.5757 12C19.5757 16.184 16.1839 19.5757 12 19.5757C7.8161 19.5757 4.42431 16.1839 4.42431 12ZM12 2.92432C6.98767 2.92432 2.92431 6.98768 2.92431 12C2.92431 17.0123 6.98767 21.0757 12 21.0757C17.0123 21.0757 21.0757 17.0124 21.0757 12C21.0757 6.98768 17.0123 2.92432 12 2.92432ZM13.4079 16.4879L13.5395 15.917L13.5395 15.917C13.4717 15.9509 13.362 15.99 13.2105 16.0343C13.059 16.0787 12.9234 16.1009 12.8038 16.1009C12.5486 16.1009 12.3691 16.0565 12.2655 15.9677C12.1618 15.879 12.1099 15.7119 12.1099 15.4666C12.1099 15.3694 12.1259 15.2256 12.1579 15.0353C12.1897 14.8449 12.2257 14.6758 12.2655 14.5278L12.7559 12.6818C12.8038 12.5127 12.8367 12.3267 12.8546 12.1236C12.8725 11.9206 12.8816 11.7789 12.8816 11.6987C12.8816 11.3096 12.753 10.9934 12.4958 10.7503C12.2386 10.5071 11.8728 10.3855 11.3982 10.3855C11.1351 10.3855 10.8559 10.4352 10.5609 10.5346C10.2658 10.6339 9.95682 10.7534 9.63386 10.893L9.50228 11.4639C9.59792 11.4258 9.71259 11.3857 9.84617 11.3434C9.97974 11.3011 10.1104 11.28 10.238 11.28C10.4971 11.28 10.6725 11.3265 10.7643 11.4195C10.8559 11.5125 10.9019 11.6775 10.9019 11.9142C10.9019 12.0454 10.8868 12.1902 10.857 12.3488C10.827 12.5073 10.7901 12.6756 10.7463 12.8531L10.2558 14.7053C10.212 14.8999 10.1802 15.0744 10.1602 15.2287C10.1402 15.383 10.1302 15.5343 10.1302 15.6822C10.1302 16.0629 10.2629 16.3769 10.528 16.6242C10.7932 16.8717 11.165 16.9954 11.6434 16.9954C11.9545 16.9954 12.2276 16.9521 12.4629 16.8653C12.6981 16.7786 13.0132 16.6529 13.4079 16.4879ZM13.3211 8.99326C13.5505 8.76697 13.6651 8.49309 13.6651 8.17175C13.6651 7.85037 13.5504 7.57551 13.3211 7.34711C13.0919 7.11872 12.8158 7.00459 12.4927 7.00459C12.1697 7.00459 11.8927 7.11872 11.6614 7.34711C11.4302 7.57554 11.3145 7.85041 11.3145 8.17175C11.3145 8.49309 11.4302 8.76698 11.6614 8.99326C11.8927 9.21955 12.1698 9.33256 12.4927 9.33256C12.8158 9.33256 13.0919 9.21954 13.3211 8.99326Z" />
</svg>
