<svg width="24" height="24" viewBox="0 0 24 24" fill="none" xmlns="http://www.w3.org/2000/svg">
<path fill-rule="evenodd" clip-rule="evenodd" d="M6.83198 4.52852L10.0383 7.57625L8.12119 9.39862L7.62637 9.86899L8.04829 10.4057C8.72434 11.2657 9.487 12.1005 10.3153 12.8879L10.3153 12.8879C11.271 13.7963 12.2875 14.6173 13.3376 15.3278L13.8373 15.6659L14.2746 15.2502L16.2207 13.4002L19.4267 16.4477L17.851 17.9455C17.4675 18.3101 16.9944 18.5001 16.4023 18.5001C15.6509 18.5001 14.6616 18.1919 13.4391 17.4776C11.5101 16.35 9.66389 14.5991 9.03441 14.0005L9.03429 14.0003C8.2984 13.3008 6.65182 11.7319 5.56041 10.1014L5.56039 10.1013C4.88489 9.09227 4.56765 8.28068 4.51067 7.65433C4.4574 7.06882 4.62633 6.62516 5.01641 6.25434C5.01641 6.25434 5.01642 6.25433 5.01642 6.25433L6.83198 4.52852ZM19.5438 16.5591C19.5435 16.5588 19.5432 16.5585 19.5429 16.5582L19.5438 16.5591ZM7.80481 3.3837C7.26369 2.86934 6.40042 2.86973 5.85943 3.38344L5.85914 3.38371L3.98296 5.16715L3.98295 5.16716C3.24533 5.86834 2.92396 6.76942 3.01684 7.79024C3.106 8.77021 3.57135 9.82652 4.31388 10.9357C5.50474 12.7149 7.25906 14.3824 7.9887 15.076L8.00073 15.0874L8.00084 15.0875L8.0063 15.0927C8.63346 15.6891 10.5895 17.5493 12.6822 18.7726L12.6823 18.7726C14.0145 19.5511 15.2739 20.0001 16.4023 20.0001C17.3559 20.0001 18.2058 19.6778 18.8845 19.0327L20.5758 17.4249C20.7073 17.2999 20.8116 17.1518 20.8835 16.9889L20.9976 16.9393V16.4477C20.9976 16.0745 20.8442 15.7252 20.5764 15.4711M20.5755 15.4702L17.1936 12.2554C17.1936 12.2554 17.1936 12.2554 17.1935 12.2554C16.928 12.003 16.5791 11.87 16.2207 11.87C15.862 11.87 15.5137 12.0033 15.2485 12.2549L15.2479 12.2554L13.6849 13.7411C12.8795 13.1614 12.0955 12.5105 11.3487 11.8007C10.7427 11.2246 10.176 10.6233 9.65781 10.0075L11.1875 8.55342C11.1875 8.55342 11.1875 8.55342 11.1875 8.55341C11.7502 8.01858 11.7497 7.13408 11.1878 6.59936L11.1875 6.59907L7.80482 3.38372C7.80482 3.38371 7.80481 3.38371 7.80481 3.3837" />
</svg>
