<svg width="24" height="24" viewBox="0 0 24 24" fill="none" xmlns="http://www.w3.org/2000/svg">
<path fill-rule="evenodd" clip-rule="evenodd" d="M1.88001 7.81543C2.30851 8.00482 2.79975 8.09952 3.35373 8.09952C3.92191 8.09952 4.42499 8.00719 4.86296 7.82253C5.3033 7.63551 5.64658 7.37982 5.89279 7.05549C6.14137 6.72878 6.26566 6.35473 6.26566 5.93333C6.26803 5.48588 6.1248 5.11301 5.83597 4.81472C5.54952 4.51642 5.12456 4.33413 4.56112 4.26784V4.21103C4.98252 4.14947 5.32698 3.98612 5.5945 3.72097C5.86438 3.45582 5.99814 3.11846 5.99577 2.7089C5.99577 2.31354 5.88569 1.95961 5.66552 1.64711C5.44535 1.33224 5.13758 1.08366 4.74222 0.901367C4.34686 0.719075 3.88877 0.62793 3.36793 0.62793C2.84473 0.62793 2.37835 0.721443 1.96879 0.908469C1.56159 1.0955 1.23962 1.35473 1.00288 1.68617C0.766134 2.01524 0.645396 2.3964 0.640661 2.82963H2.32035C2.32508 2.66391 2.37362 2.51832 2.46595 2.39284C2.55827 2.26737 2.68256 2.17031 2.83881 2.10165C2.99743 2.033 3.1738 1.99867 3.36793 1.99867C3.55259 1.99867 3.71476 2.033 3.85444 2.10165C3.99648 2.17031 4.10657 2.26737 4.1847 2.39284C4.26519 2.51595 4.30425 2.65918 4.30188 2.82253C4.30425 2.99062 4.25927 3.13977 4.16694 3.26997C4.07461 3.39782 3.94559 3.49725 3.77987 3.56827C3.61651 3.63929 3.42712 3.6748 3.21168 3.6748H2.50501V4.9248H3.21168C3.4579 4.9248 3.67096 4.9615 3.85089 5.03489C4.03318 5.10828 4.17404 5.21126 4.27347 5.34384C4.37291 5.47641 4.42144 5.62793 4.41907 5.79838C4.42144 5.96884 4.37764 6.12035 4.28768 6.25293C4.19772 6.38314 4.07224 6.48612 3.91126 6.56188C3.75264 6.63527 3.56916 6.67196 3.36083 6.67196C3.1525 6.67196 2.96666 6.63764 2.8033 6.56898C2.63995 6.50033 2.51093 6.40563 2.41623 6.28489C2.32153 6.16178 2.27063 6.02092 2.26353 5.8623H0.495064C0.499799 6.30028 0.625273 6.68735 0.871485 7.02353C1.1177 7.3597 1.45387 7.62367 1.88001 7.81543ZM8.62933 7.90776C8.99392 8.0356 9.37507 8.09952 9.7728 8.09952C10.3291 8.09952 10.818 7.9918 11.2394 7.77637C11.6632 7.56093 11.9946 7.26027 12.2337 6.87438C12.4728 6.48612 12.5912 6.03868 12.5889 5.53205C12.5912 5.08224 12.4977 4.68333 12.3083 4.33532C12.1189 3.98494 11.8573 3.70913 11.5235 3.5079C11.1897 3.30667 10.805 3.20605 10.3694 3.20605C10.0971 3.20605 9.83909 3.24867 9.59524 3.3339C9.35376 3.41676 9.13951 3.53631 8.95249 3.69256C8.76546 3.84881 8.62223 4.03584 8.5228 4.25364H8.47663C8.48137 3.60733 8.59264 3.09123 8.81044 2.70534C9.03061 2.31945 9.36323 2.12651 9.80831 2.12651C10.0498 2.12651 10.2581 2.18688 10.4333 2.30762C10.6109 2.42599 10.7257 2.59999 10.7778 2.82963H12.5072C12.4646 2.42244 12.3261 2.05312 12.0917 1.72168C11.8573 1.38787 11.5448 1.12272 11.1542 0.926225C10.7659 0.727361 10.3173 0.62793 9.80831 0.62793C9.34429 0.62793 8.92408 0.716708 8.54766 0.894264C8.1736 1.06945 7.85163 1.32395 7.58175 1.65776C7.31423 1.99157 7.10826 2.39758 6.96385 2.8758C6.81944 3.35165 6.74605 3.88906 6.74368 4.48801C6.74131 5.15089 6.8218 5.71316 6.98516 6.1748C7.14851 6.63408 7.37223 7.00577 7.65632 7.28986C7.94041 7.57158 8.26475 7.77755 8.62933 7.90776ZM10.341 6.59739C10.1705 6.69919 9.97758 6.75009 9.76215 6.75009C9.54671 6.75009 9.35495 6.69919 9.18686 6.59739C9.01877 6.49322 8.8862 6.35355 8.78913 6.17836C8.69207 6.00317 8.64235 5.80785 8.63999 5.59242C8.64235 5.42907 8.67195 5.27755 8.72876 5.13787C8.78558 4.99583 8.86371 4.87272 8.96314 4.76855C9.06494 4.66202 9.18449 4.57916 9.3218 4.51997C9.45912 4.46079 9.60708 4.4312 9.7657 4.4312C9.9835 4.4312 10.1764 4.4821 10.3445 4.5839C10.515 4.68569 10.6476 4.82301 10.7423 4.99583C10.8393 5.16865 10.8867 5.36633 10.8843 5.58887C10.8867 5.80904 10.8393 6.00672 10.7423 6.18191C10.6452 6.3571 10.5114 6.49559 10.341 6.59739ZM14.553 7.72665C15.0123 8.02731 15.5592 8.17765 16.1936 8.17765C16.8305 8.17765 17.3774 8.0285 17.8343 7.7302C18.2935 7.42954 18.6475 6.99512 18.8961 6.42694C19.1446 5.85875 19.2689 5.17457 19.2689 4.37438C19.2713 3.57892 19.1482 2.90184 18.8996 2.34313C18.651 1.78442 18.2959 1.35946 17.8343 1.06827C17.375 0.77471 16.8281 0.62793 16.1936 0.62793C15.5592 0.62793 15.0123 0.77471 14.553 1.06827C14.0961 1.35946 13.7434 1.78442 13.4948 2.34313C13.2486 2.89947 13.1243 3.57656 13.1219 4.37438C13.1195 5.1722 13.2426 5.8552 13.4912 6.42338C13.7398 6.9892 14.0937 7.42362 14.553 7.72665ZM17.1134 6.1606C16.879 6.54649 16.5724 6.73944 16.1936 6.73944C15.9427 6.73944 15.7213 6.65421 15.5296 6.48375C15.3378 6.31093 15.1887 6.04933 15.0821 5.69895C14.978 5.34857 14.9271 4.90705 14.9294 4.37438C14.9318 3.58839 15.049 3.00601 15.281 2.62722C15.513 2.24606 15.8172 2.05549 16.1936 2.05549C16.447 2.05549 16.6683 2.13953 16.8577 2.30762C17.0471 2.4757 17.1951 2.73139 17.3016 3.07466C17.4081 3.41557 17.4614 3.84881 17.4614 4.37438C17.4638 5.17694 17.3478 5.77234 17.1134 6.1606ZM20.7493 4.00506C21.0191 4.16368 21.3186 4.24299 21.6477 4.24299C21.9768 4.24299 22.2751 4.16368 22.5426 4.00506C22.8125 3.84408 23.0267 3.62864 23.1853 3.35875C23.3463 3.08887 23.4268 2.79057 23.4268 2.46387C23.4268 2.13479 23.3463 1.83532 23.1853 1.56543C23.0267 1.29554 22.8125 1.08129 22.5426 0.922674C22.2751 0.761689 21.9768 0.681196 21.6477 0.681196C21.3186 0.681196 21.0191 0.761689 20.7493 0.922674C20.4794 1.08129 20.2639 1.29554 20.1029 1.56543C19.9443 1.83532 19.865 2.13479 19.865 2.46387C19.865 2.79057 19.9443 3.08887 20.1029 3.35875C20.2639 3.62864 20.4794 3.84408 20.7493 4.00506ZM21.9851 3.04625C21.8832 3.10544 21.7708 3.13503 21.6477 3.13503C21.5246 3.13503 21.4109 3.10544 21.3068 3.04625C21.205 2.98707 21.1233 2.90658 21.0618 2.80478C21.0026 2.70061 20.973 2.58579 20.973 2.46032C20.973 2.33721 21.0026 2.22476 21.0618 2.12296C21.1233 2.02116 21.205 1.94067 21.3068 1.88148C21.4086 1.81993 21.5222 1.78915 21.6477 1.78915C21.7708 1.78915 21.8832 1.81993 21.9851 1.88148C22.0868 1.94067 22.1673 2.02116 22.2265 2.12296C22.2881 2.22476 22.3189 2.33839 22.3189 2.46387C22.3189 2.58697 22.2881 2.69943 22.2265 2.80122C22.1673 2.90302 22.0868 2.9847 21.9851 3.04625ZM2 20.2975V16.2909C2.14947 16.3666 2.29852 16.4338 2.44361 16.4931C3.23086 16.8151 4.10322 16.9994 4.8591 17.0926V17.0936V17.0976V17.1016V17.1056V17.1096V17.1136V17.1176V17.1216V17.1256V17.1296V17.1337V17.1377V17.1417V17.1458V17.1498V17.1539V17.158V17.162V17.1661V17.1702V17.1742V17.1783V17.1824V17.1865V17.1906V17.1947V17.1988V17.2029V17.207V17.2112V17.2153V17.2194V17.2236V17.2277V17.2318V17.236V17.2401V17.2443V17.2485V17.2526V17.2568V17.261V17.2652V17.2694V17.2735V17.2777V17.2819V17.2861V17.2904V17.2946V17.2988V17.303V17.3072V17.3115V17.3157V17.3199V17.3242V17.3284V17.3327V17.3369V17.3412V17.3455V17.3497V17.354V17.3583V17.3625V17.3668V17.3711V17.3754V17.3797V17.384V17.3883V17.3926V17.3969V17.4013V17.4056V17.4099V17.4142V17.4186V17.4229V17.4272V17.4316V17.4359V17.4403V17.4446V17.449V17.4534V17.4577V17.4621V17.4665V17.4709V17.4752V17.4796V17.484V17.4884V17.4928V17.4972V17.5016V17.506V17.5104V17.5149V17.5193V17.5237V17.5281V17.5325V17.537V17.5414V17.5459V17.5503V17.5547V17.5592V17.5636V17.5681V17.5726V17.577V17.5815V17.586V17.5904V17.5949V17.5994V17.6039V17.6084V17.6129V17.6173V17.6218V17.6263V17.6308V17.6353V17.6399V17.6444V17.6489V17.6534V17.6579V17.6624V17.667V17.6715V17.676V17.6806V17.6851V17.6897V17.6942V17.6987V17.7033V17.7078V17.7124V17.717V17.7215V17.7261V17.7307V17.7352V17.7398V17.7444V17.749V17.7535V17.7581V17.7627V17.7673V17.7719V17.7765V17.7811V17.7857V17.7903V17.7949V17.7995V17.8041V17.8087V17.8133V17.8179V17.8226V17.8272V17.8318V17.8364V17.8411V17.8457V17.8503V17.855V17.8596V17.8643V17.8689V17.8735V17.8782V17.8828V17.8875V17.8921V17.8968V17.9015V17.9061V17.9108V17.9155V17.9201V17.9248V21.9075C4.3085 21.8249 3.71562 21.6858 3.20072 21.4753C2.28273 21.0998 2 20.6803 2 20.2975ZM6.8591 23.0023V18.6281C8.16835 18.1943 9.66642 17.9283 11.9997 17.9283C14.333 17.9283 15.8311 18.1943 17.1403 18.6281V23.0023C17.1403 23.2726 17.2498 23.5314 17.4437 23.7197C17.6376 23.908 17.8995 24.0098 18.1696 24.0019C19.0543 23.976 20.3972 23.8003 21.5558 23.3264C22.6625 22.8738 23.9994 21.9646 23.9994 20.2975V13.4642C23.9994 12.3766 23.126 11.6465 22.3879 11.2043C21.5744 10.7168 20.4961 10.3187 19.3465 10.0027C17.037 9.36788 14.1979 9.00009 11.9997 9.00009C9.80153 9.00009 6.96243 9.36788 4.65293 10.0027C3.50334 10.3187 2.42508 10.7168 1.61154 11.2043C0.873416 11.6465 0 12.3766 0 13.4642V20.2975C0 21.9646 1.33697 22.8738 2.44361 23.3264C3.6022 23.8003 4.94514 23.976 5.82982 24.0019C6.1 24.0098 6.36187 23.908 6.55578 23.7197C6.74968 23.5314 6.8591 23.2726 6.8591 23.0023ZM11.9997 15.9283C9.81035 15.9283 8.23513 16.1489 6.8591 16.5367V16.5367V16.5337V16.5308V16.5278V16.5249V16.522V16.5191V16.5161V16.5132V16.5104V16.5075V16.5046V16.5017V16.4989V16.496V16.4932V16.4903V16.4875V16.4847V16.4819V16.4791V16.4763V16.4735V16.4707V16.468V16.4652V16.4624V16.4597V16.457V16.4542V16.4515V16.4488V16.4461V16.4434V16.4407V16.438V16.4354V16.4327V16.43V16.4274V16.4247V16.4221V16.4195V16.4169V16.4143V16.4117V16.4091V16.4065V16.4039V16.4014V16.3988V16.3963V16.3937V16.3912V16.3887V16.3862V16.3837V16.3812V16.3787V16.3762V16.3738V16.3713V16.3688V16.3664V16.364V16.3615V16.3591V16.3567V16.3543V16.3519V16.3495V16.3472V16.3448V16.3425V16.3401V16.3378V16.3355V16.3331V16.3308V16.3285V16.3262V16.324V16.3217V16.3194V16.3172V16.3149V16.3127V16.3104V16.3082V16.306V16.3038V16.3016V16.2994V16.2973V16.2951V16.293V16.2908V16.2887V16.2865V16.2844V16.2823V16.2802V16.2781V16.2761V16.274V16.2719V16.2699V16.2678V16.2658V16.2638V16.2618V16.2598V16.2578V16.2558V16.2538V16.2518V16.2499V16.2479V16.246V16.2441V16.2421V16.2402V16.2383V16.2365V16.2346V16.2327V16.2308V16.229V16.2272V16.2253V16.2235V16.2217V16.2199V16.2181V16.2163V16.2145V16.2128V16.211V16.2093V16.2076V16.2058V16.2041V16.2024V16.2007V16.199V16.1974V16.1957V16.1941V16.1924V16.1908V16.1892V16.1876V16.186V16.1844V16.1828V16.1812V16.1797V16.1781V16.1766V16.175V16.1735V16.172V16.1705V16.169C6.8591 15.6281 6.42904 15.1853 5.88839 15.1695C5.15336 15.1479 4.06675 14.9962 3.20072 14.642C2.29253 14.2705 2.00611 13.856 2.0001 13.4765L2.00014 13.4765C2.00047 13.4765 2.00118 13.475 2.0026 13.4718C2.01717 13.4392 2.1068 13.239 2.63947 12.9199C3.22926 12.5665 4.10999 12.2261 5.18303 11.9312C7.31882 11.3441 9.97958 11.0001 11.9997 11.0001C14.0199 11.0001 16.6806 11.3441 18.8164 11.9312C19.8895 12.2261 20.7702 12.5665 21.36 12.9199C21.8927 13.2391 21.9823 13.4392 21.9968 13.4718C21.9983 13.475 21.999 13.4765 21.9993 13.4765L21.9994 13.4765C21.9933 13.856 21.7069 14.2705 20.7987 14.642C19.9327 14.9962 18.8461 15.1479 18.1111 15.1695C17.5704 15.1853 17.1403 15.6281 17.1403 16.169V16.1705V16.172V16.1735V16.175V16.1766V16.1781V16.1797V16.1812V16.1828V16.1844V16.186V16.1876V16.1892V16.1908V16.1924V16.1941V16.1957V16.1974V16.199V16.2007V16.2024V16.2041V16.2058V16.2076V16.2093V16.211V16.2128V16.2145V16.2163V16.2181V16.2199V16.2217V16.2235V16.2253V16.2272V16.229V16.2308V16.2327V16.2346V16.2365V16.2383V16.2402V16.2421V16.2441V16.246V16.2479V16.2499V16.2518V16.2538V16.2558V16.2578V16.2598V16.2618V16.2638V16.2658V16.2678V16.2699V16.2719V16.274V16.2761V16.2781V16.2802V16.2823V16.2844V16.2865V16.2887V16.2908V16.293V16.2951V16.2973V16.2994V16.3016V16.3038V16.306V16.3082V16.3104V16.3127V16.3149V16.3172V16.3194V16.3217V16.324V16.3262V16.3285V16.3308V16.3331V16.3355V16.3378V16.3401V16.3425V16.3448V16.3472V16.3495V16.3519V16.3543V16.3567V16.3591V16.3615V16.364V16.3664V16.3688V16.3713V16.3738V16.3762V16.3787V16.3812V16.3837V16.3862V16.3887V16.3912V16.3937V16.3963V16.3988V16.4014V16.4039V16.4065V16.4091V16.4117V16.4143V16.4169V16.4195V16.4221V16.4247V16.4274V16.43V16.4327V16.4354V16.438V16.4407V16.4434V16.4461V16.4488V16.4515V16.4542V16.457V16.4597V16.4624V16.4652V16.468V16.4707V16.4735V16.4763V16.4791V16.4819V16.4847V16.4875V16.4903V16.4932V16.496V16.4989V16.5017V16.5046V16.5075V16.5104V16.5132V16.5161V16.5191V16.522V16.5249V16.5278V16.5308V16.5337V16.5367V16.5367C15.7643 16.1489 14.1891 15.9283 11.9997 15.9283ZM21.5558 16.4931C21.7009 16.4338 21.85 16.3666 21.9994 16.2909V20.2975C21.9994 20.6803 21.7167 21.0998 20.7987 21.4753C20.2838 21.6858 19.6909 21.8249 19.1403 21.9075V17.9248V17.9201V17.9155V17.9108V17.9061V17.9015V17.8968V17.8921V17.8875V17.8828V17.8782V17.8735V17.8689V17.8643V17.8596V17.855V17.8503V17.8457V17.8411V17.8364V17.8318V17.8272V17.8226V17.8179V17.8133V17.8087V17.8041V17.7995V17.7949V17.7903V17.7857V17.7811V17.7765V17.7719V17.7673V17.7627V17.7581V17.7535V17.749V17.7444V17.7398V17.7352V17.7307V17.7261V17.7215V17.717V17.7124V17.7078V17.7033V17.6987V17.6942V17.6897V17.6851V17.6806V17.676V17.6715V17.667V17.6624V17.6579V17.6534V17.6489V17.6444V17.6399V17.6353V17.6308V17.6263V17.6218V17.6173V17.6129V17.6084V17.6039V17.5994V17.5949V17.5904V17.586V17.5815V17.577V17.5726V17.5681V17.5636V17.5592V17.5547V17.5503V17.5459V17.5414V17.537V17.5325V17.5281V17.5237V17.5193V17.5149V17.5104V17.506V17.5016V17.4972V17.4928V17.4884V17.484V17.4796V17.4752V17.4709V17.4665V17.4621V17.4577V17.4534V17.449V17.4446V17.4403V17.4359V17.4316V17.4272V17.4229V17.4186V17.4142V17.4099V17.4056V17.4013V17.3969V17.3926V17.3883V17.384V17.3797V17.3754V17.3711V17.3668V17.3625V17.3583V17.354V17.3497V17.3455V17.3412V17.3369V17.3327V17.3284V17.3242V17.3199V17.3157V17.3115V17.3072V17.303V17.2988V17.2946V17.2904V17.2861V17.2819V17.2777V17.2735V17.2694V17.2652V17.261V17.2568V17.2526V17.2485V17.2443V17.2401V17.236V17.2318V17.2277V17.2236V17.2194V17.2153V17.2112V17.207V17.2029V17.1988V17.1947V17.1906V17.1865V17.1824V17.1783V17.1742V17.1702V17.1661V17.162V17.158V17.1539V17.1498V17.1458V17.1417V17.1377V17.1337V17.1296V17.1256V17.1216V17.1176V17.1136V17.1096V17.1056V17.1016V17.0976V17.0936V17.0926C19.8962 16.9994 20.7686 16.8151 21.5558 16.4931Z" />
</svg>
