<svg width="24" height="24" viewBox="0 0 24 24" fill="none" xmlns="http://www.w3.org/2000/svg">
<path fill-rule="evenodd" clip-rule="evenodd" d="M12 22.5C6.20101 22.5 1.5 17.799 1.5 12C1.5 6.20101 6.20101 1.5 12 1.5C17.799 1.5 22.5 6.20101 22.5 12C22.5 17.799 17.799 22.5 12 22.5ZM-5.24537e-07 12C-2.34843e-07 5.37258 5.37258 2.34843e-07 12 5.24537e-07C18.6274 8.1423e-07 24 5.37258 24 12C24 18.6274 18.6274 24 12 24C5.37258 24 -8.1423e-07 18.6274 -5.24537e-07 12ZM10.6 7.2C9.94076 6.70557 9 7.17595 9 8L9 16C9 16.824 9.94076 17.2944 10.6 16.8L15.9333 12.8C16.4667 12.4 16.4667 11.6 15.9333 11.2L10.6 7.2Z" fill="#FAFBFE"/>
</svg>
