<svg width="24" height="24" viewBox="0 0 24 24" fill="none" xmlns="http://www.w3.org/2000/svg">
<path fill-rule="evenodd" clip-rule="evenodd" d="M9.9962 6.89337C9.9962 6.78557 10.0567 6.6174 10.2098 6.46235C10.3635 6.3067 10.5253 6.25 10.6218 6.25H13.3731C13.4696 6.25 13.6314 6.3067 13.7851 6.46235C13.9382 6.6174 13.9987 6.78557 13.9987 6.89337V7.53674H9.9962V6.89337ZM8.4962 7.53674V6.89337C8.4962 6.30448 8.77958 5.77598 9.14236 5.40851C9.50456 5.04164 10.0306 4.75 10.6218 4.75H13.3731C13.9643 4.75 14.4903 5.04164 14.8525 5.40851C15.2153 5.77598 15.4987 6.30448 15.4987 6.89337V7.53674H16.5828H17.5C17.9142 7.53674 18.25 7.87253 18.25 8.28674C18.25 8.70096 17.9142 9.03674 17.5 9.03674H17.3328V17.2275C17.3328 17.7976 17.0485 18.2999 16.697 18.6427C16.3442 18.9866 15.8375 19.2548 15.2727 19.2548H8.72209C8.15729 19.2548 7.65058 18.9866 7.29783 18.6427C6.94627 18.2999 6.66197 17.7976 6.66197 17.2275V9.03674H6.49498C6.08076 9.03674 5.74498 8.70096 5.74498 8.28674C5.74498 7.87253 6.08076 7.53674 6.49498 7.53674H7.41197H8.4962ZM9.24741 9.03674L9.2462 9.03674L9.24499 9.03674H8.16197V17.2275C8.16197 17.2961 8.2052 17.4324 8.34493 17.5686C8.48348 17.7037 8.63183 17.7548 8.72209 17.7548H15.2727C15.363 17.7548 15.5113 17.7037 15.6499 17.5686C15.7896 17.4324 15.8328 17.2961 15.8328 17.2275V9.03674H14.7502L14.7487 9.03674L14.7472 9.03674H9.24741ZM10.5182 10.2192C10.9324 10.2192 11.2682 10.555 11.2682 10.9692V15.6138C11.2682 16.028 10.9324 16.3638 10.5182 16.3638C10.104 16.3638 9.76817 16.028 9.76817 15.6138V10.9692C9.76817 10.555 10.104 10.2192 10.5182 10.2192ZM14.2682 10.9692C14.2682 10.555 13.9324 10.2192 13.5182 10.2192C13.104 10.2192 12.7682 10.555 12.7682 10.9692V15.6138C12.7682 16.028 13.104 16.3638 13.5182 16.3638C13.9324 16.3638 14.2682 16.028 14.2682 15.6138V10.9692Z" />
</svg>
