<svg width="24" height="24" viewBox="0 0 24 24" fill="none" xmlns="http://www.w3.org/2000/svg">
<path d="M10.9688 14.5611V14.4261C10.9782 13.5455 11.0658 12.8447 11.2315 12.3239C11.402 11.803 11.6435 11.3816 11.956 11.0597C12.2685 10.7377 12.6449 10.4441 13.0852 10.179C13.3693 9.99905 13.625 9.79782 13.8523 9.57528C14.0795 9.35275 14.2595 9.09706 14.392 8.80824C14.5246 8.51941 14.5909 8.19981 14.5909 7.84943C14.5909 7.42803 14.4915 7.06345 14.2926 6.75568C14.0938 6.44792 13.8286 6.21117 13.4972 6.04545C13.1705 5.875 12.8059 5.78977 12.4034 5.78977C12.0388 5.78977 11.6908 5.86553 11.3594 6.01705C11.0279 6.16856 10.7533 6.4053 10.5355 6.72727C10.3177 7.04451 10.1922 7.45407 10.1591 7.95597H8C8.03314 7.10369 8.24858 6.384 8.64631 5.79688C9.04403 5.20502 9.5696 4.75758 10.223 4.45455C10.8812 4.15152 11.608 4 12.4034 4C13.2746 4 14.0369 4.16335 14.6903 4.49006C15.3438 4.81203 15.8504 5.2642 16.2102 5.84659C16.5748 6.42424 16.7571 7.09896 16.7571 7.87074C16.7571 8.40104 16.6742 8.87926 16.5085 9.3054C16.3428 9.7268 16.1061 10.1032 15.7983 10.4347C15.4953 10.7661 15.1307 11.0597 14.7045 11.3153C14.3021 11.5663 13.9754 11.8267 13.7244 12.0966C13.4782 12.3665 13.2983 12.6861 13.1847 13.0554C13.071 13.4247 13.0095 13.8816 13 14.4261V14.5611H10.9688ZM12.0412 18.8793C11.6529 18.8793 11.3191 18.742 11.0398 18.4673C10.7604 18.188 10.6207 17.8518 10.6207 17.4588C10.6207 17.0705 10.7604 16.7391 11.0398 16.4645C11.3191 16.1851 11.6529 16.0455 12.0412 16.0455C12.4247 16.0455 12.7562 16.1851 13.0355 16.4645C13.3196 16.7391 13.4616 17.0705 13.4616 17.4588C13.4616 17.7192 13.3954 17.9583 13.2628 18.1761C13.1349 18.3892 12.9645 18.5597 12.7514 18.6875C12.5384 18.8153 12.3016 18.8793 12.0412 18.8793Z" />
</svg>
