<svg width="24" height="24" viewBox="0 0 24 24" fill="none" xmlns="http://www.w3.org/2000/svg">
<path fill-rule="evenodd" clip-rule="evenodd" d="M12.6629 4.30273L20.9203 18.4245C21.0266 18.6182 21.0266 18.8527 20.9203 19.0464L20.8057 19.2345C20.6997 19.4287 20.495 19.5483 20.2738 19.5455H3.72622C3.50501 19.5483 3.30033 19.4287 3.19428 19.2345L3.07971 19.0464C2.97343 18.8527 2.97343 18.6182 3.07971 18.4245L11.3535 4.30273C11.4654 4.11554 11.6673 4.00066 11.8854 4H12.1309C12.3491 4.00066 12.5509 4.11554 12.6629 4.30273ZM11.9999 6.45455L5.28108 17.9091H18.7106L11.9999 6.45455ZM12.4091 14.6363H11.5908C11.3648 14.6363 11.1816 14.8195 11.1816 15.0454V15.8636C11.1816 16.0896 11.3648 16.2727 11.5908 16.2727H12.4091C12.6351 16.2727 12.8183 16.0896 12.8183 15.8636V15.0454C12.8183 14.8195 12.6351 14.6363 12.4091 14.6363ZM11.3616 12.82L11.0342 10.1854C11.0201 10.0687 11.0569 9.95158 11.1352 9.86388C11.2136 9.77618 11.3258 9.72641 11.4434 9.72726H12.5564C12.674 9.72641 12.7863 9.77618 12.8646 9.86388C12.9429 9.95158 12.9797 10.0687 12.9656 10.1854L12.6383 12.82C12.6258 12.9233 12.5377 13.0007 12.4337 13H11.5662C11.4621 13.0007 11.3741 12.9233 11.3616 12.82Z" />
</svg>
